<mxfile host="app.diagrams.net" modified="2021-04-22T13:41:00.851Z" agent="5.0 (Macintosh; Intel Mac OS X 10_15_6) AppleWebKit/605.1.15 (KHTML, like Gecko) Version/14.0.3 Safari/605.1.15" etag="t8xKSf_a_9W5Q5ecer7i" version="14.5.3" type="github">
  <diagram id="3Wau5_Fi5CU8AMhD_Lpf" name="第 1 页">
    <mxGraphModel dx="1361" dy="763" grid="1" gridSize="10" guides="1" tooltips="1" connect="1" arrows="1" fold="1" page="1" pageScale="1" pageWidth="827" pageHeight="1169" math="0" shadow="0">
      <root>
        <mxCell id="0" />
        <mxCell id="1" parent="0" />
        <mxCell id="vccSvxHyjm0V3kO-Sszf-13" value="&lt;font style=&quot;font-size: 20px&quot;&gt;&lt;b&gt;&amp;nbsp; &amp;nbsp; &amp;nbsp; &amp;nbsp; &lt;br&gt;&amp;nbsp; &amp;nbsp; &amp;nbsp; &amp;nbsp; &amp;nbsp;进程&lt;/b&gt;&lt;/font&gt;" style="rounded=1;whiteSpace=wrap;html=1;fontSize=16;align=left;verticalAlign=top;fillColor=#f9f7ed;strokeColor=none;" vertex="1" parent="1">
          <mxGeometry x="-60" y="210" width="770" height="450" as="geometry" />
        </mxCell>
        <mxCell id="vccSvxHyjm0V3kO-Sszf-7" value="&lt;span style=&quot;color: rgb(51, 51, 51); font-family: &amp;quot;pingfang sc&amp;quot;, &amp;quot;lantinghei sc&amp;quot;, &amp;quot;microsoft yahei&amp;quot;, &amp;quot;hiragino sans gb&amp;quot;, &amp;quot;microsoft sans serif&amp;quot;, &amp;quot;wenquanyi micro hei&amp;quot;, helvetica, sans-serif;&quot;&gt;Handler&lt;/span&gt;" style="ellipse;whiteSpace=wrap;html=1;verticalAlign=top;fontSize=16;fillColor=#cce5ff;labelBackgroundColor=none;strokeColor=none;" vertex="1" parent="1">
          <mxGeometry x="260" y="480" width="420" height="160" as="geometry" />
        </mxCell>
        <mxCell id="vccSvxHyjm0V3kO-Sszf-10" style="rounded=0;orthogonalLoop=1;jettySize=auto;html=1;entryX=0.5;entryY=0;entryDx=0;entryDy=0;fontSize=16;exitX=0.5;exitY=1;exitDx=0;exitDy=0;" edge="1" parent="1" source="vccSvxHyjm0V3kO-Sszf-1" target="vccSvxHyjm0V3kO-Sszf-4">
          <mxGeometry relative="1" as="geometry" />
        </mxCell>
        <mxCell id="vccSvxHyjm0V3kO-Sszf-11" style="rounded=0;orthogonalLoop=1;jettySize=auto;html=1;entryX=0.5;entryY=0;entryDx=0;entryDy=0;fontSize=16;" edge="1" parent="1" target="vccSvxHyjm0V3kO-Sszf-7">
          <mxGeometry relative="1" as="geometry">
            <mxPoint x="250" y="390" as="sourcePoint" />
          </mxGeometry>
        </mxCell>
        <mxCell id="vccSvxHyjm0V3kO-Sszf-1" value="&lt;span style=&quot;font-size: 16px; font-family: &amp;quot;pingfang sc&amp;quot;, &amp;quot;lantinghei sc&amp;quot;, &amp;quot;microsoft yahei&amp;quot;, &amp;quot;hiragino sans gb&amp;quot;, &amp;quot;microsoft sans serif&amp;quot;, &amp;quot;wenquanyi micro hei&amp;quot;, helvetica, sans-serif;&quot;&gt;Reactor&lt;/span&gt;" style="ellipse;html=1;verticalAlign=top;fontSize=16;fillColor=#cce5ff;whiteSpace=wrap;labelBackgroundColor=none;strokeColor=none;" vertex="1" parent="1">
          <mxGeometry x="100" y="230" width="300" height="160" as="geometry" />
        </mxCell>
        <mxCell id="vccSvxHyjm0V3kO-Sszf-2" value="select" style="rounded=0;whiteSpace=wrap;html=1;fontSize=16;fillColor=#ffcc99;strokeColor=none;" vertex="1" parent="1">
          <mxGeometry x="130" y="285" width="100" height="50" as="geometry" />
        </mxCell>
        <mxCell id="vccSvxHyjm0V3kO-Sszf-3" value="dispatch" style="rounded=0;whiteSpace=wrap;html=1;fontSize=16;fillColor=#ffcc99;strokeColor=none;" vertex="1" parent="1">
          <mxGeometry x="260" y="285" width="100" height="50" as="geometry" />
        </mxCell>
        <mxCell id="vccSvxHyjm0V3kO-Sszf-4" value="&lt;span style=&quot;color: rgb(51, 51, 51); font-family: &amp;quot;pingfang sc&amp;quot;, &amp;quot;lantinghei sc&amp;quot;, &amp;quot;microsoft yahei&amp;quot;, &amp;quot;hiragino sans gb&amp;quot;, &amp;quot;microsoft sans serif&amp;quot;, &amp;quot;wenquanyi micro hei&amp;quot;, helvetica, sans-serif;&quot;&gt;Acceptor&lt;/span&gt;" style="ellipse;whiteSpace=wrap;html=1;verticalAlign=top;fontSize=16;fillColor=#cce5ff;labelBackgroundColor=none;strokeColor=none;" vertex="1" parent="1">
          <mxGeometry x="-30" y="480" width="220" height="140" as="geometry" />
        </mxCell>
        <mxCell id="vccSvxHyjm0V3kO-Sszf-5" value="accept" style="rounded=0;whiteSpace=wrap;html=1;fontSize=16;fillColor=#ffcc99;strokeColor=none;" vertex="1" parent="1">
          <mxGeometry x="25" y="525" width="100" height="50" as="geometry" />
        </mxCell>
        <mxCell id="vccSvxHyjm0V3kO-Sszf-6" value="send" style="rounded=0;whiteSpace=wrap;html=1;fontSize=16;fillColor=#ffcc99;strokeColor=none;" vertex="1" parent="1">
          <mxGeometry x="550" y="535" width="100" height="50" as="geometry" />
        </mxCell>
        <mxCell id="vccSvxHyjm0V3kO-Sszf-15" style="edgeStyle=none;rounded=0;orthogonalLoop=1;jettySize=auto;html=1;entryX=0;entryY=0.5;entryDx=0;entryDy=0;fontSize=16;" edge="1" parent="1" source="vccSvxHyjm0V3kO-Sszf-8" target="vccSvxHyjm0V3kO-Sszf-9">
          <mxGeometry relative="1" as="geometry" />
        </mxCell>
        <mxCell id="vccSvxHyjm0V3kO-Sszf-8" value="read" style="rounded=0;whiteSpace=wrap;html=1;fontSize=16;fillColor=#ffcc99;strokeColor=none;" vertex="1" parent="1">
          <mxGeometry x="290" y="535" width="100" height="50" as="geometry" />
        </mxCell>
        <mxCell id="vccSvxHyjm0V3kO-Sszf-16" style="edgeStyle=none;rounded=0;orthogonalLoop=1;jettySize=auto;html=1;entryX=0;entryY=0.5;entryDx=0;entryDy=0;fontSize=16;" edge="1" parent="1" source="vccSvxHyjm0V3kO-Sszf-9" target="vccSvxHyjm0V3kO-Sszf-6">
          <mxGeometry relative="1" as="geometry" />
        </mxCell>
        <mxCell id="vccSvxHyjm0V3kO-Sszf-9" value="业务处理" style="rounded=0;whiteSpace=wrap;html=1;fontSize=16;fillColor=#ffcc99;strokeColor=none;" vertex="1" parent="1">
          <mxGeometry x="420" y="535" width="100" height="50" as="geometry" />
        </mxCell>
        <mxCell id="vccSvxHyjm0V3kO-Sszf-14" style="edgeStyle=none;rounded=0;orthogonalLoop=1;jettySize=auto;html=1;fontSize=16;entryX=0;entryY=0.5;entryDx=0;entryDy=0;" edge="1" parent="1" source="vccSvxHyjm0V3kO-Sszf-12" target="vccSvxHyjm0V3kO-Sszf-1">
          <mxGeometry relative="1" as="geometry" />
        </mxCell>
        <mxCell id="vccSvxHyjm0V3kO-Sszf-12" value="Client" style="ellipse;whiteSpace=wrap;html=1;fontSize=16;fillColor=#ffcccc;strokeColor=none;" vertex="1" parent="1">
          <mxGeometry x="-210" y="270" width="120" height="80" as="geometry" />
        </mxCell>
        <mxCell id="vccSvxHyjm0V3kO-Sszf-17" value="说明：" style="text;html=1;align=center;verticalAlign=middle;resizable=0;points=[];autosize=1;fontSize=16;fontColor=#000000;" vertex="1" parent="1">
          <mxGeometry y="687.5" width="60" height="20" as="geometry" />
        </mxCell>
        <mxCell id="vccSvxHyjm0V3kO-Sszf-18" value="对象" style="ellipse;whiteSpace=wrap;html=1;labelBackgroundColor=none;fontSize=16;align=center;fillColor=#cce5ff;strokeColor=none;" vertex="1" parent="1">
          <mxGeometry x="60" y="680" width="70" height="35" as="geometry" />
        </mxCell>
        <mxCell id="vccSvxHyjm0V3kO-Sszf-19" value="API 或 操作" style="rounded=0;whiteSpace=wrap;html=1;fontSize=16;fillColor=#ffcc99;strokeColor=none;fontStyle=0" vertex="1" parent="1">
          <mxGeometry x="150" y="680" width="100" height="35" as="geometry" />
        </mxCell>
      </root>
    </mxGraphModel>
  </diagram>
</mxfile>
